<svg aria-hidden="true" style="position: absolute; width: 0; height: 0; overflow: hidden;" version="1.1" xmlns="http://www.w3.org/2000/svg" xmlns:xlink="http://www.w3.org/1999/xlink">
<defs>
<symbol id="icon-tv" viewBox="0 0 32 32">
<path d="M29.396 7.809h-10.692l4.218-5.049c0.068 0.012 0.126 0.038 0.196 0.038 0.694 0 1.256-0.561 1.256-1.253 0-0.689-0.562-1.253-1.256-1.253-0.691 0-1.256 0.564-1.256 1.253 0 0.152 0.038 0.291 0.086 0.424l-4.879 5.84h-0.46l-4.876-5.84c0.047-0.133 0.084-0.273 0.084-0.425 0-0.689-0.562-1.253-1.256-1.253-0.692 0-1.256 0.564-1.256 1.253 0 0.693 0.564 1.253 1.256 1.253 0.070 0 0.13-0.026 0.195-0.038l4.219 5.049h-10.692c-1.386 0-2.51 1.123-2.51 2.505v17.541c0 1.383 1.124 2.505 2.51 2.505h25.113c1.386 0 2.511-1.122 2.511-2.505v-17.541c0-1.382-1.124-2.505-2.511-2.505zM24.373 25.349c0 1.383-1.123 2.506-2.512 2.506h-15.066c-1.386 0-2.512-1.123-2.512-2.506v-12.528c0-1.384 1.125-2.506 2.512-2.506h15.066c1.389 0 2.512 1.122 2.512 2.506v12.529zM28.073 14.151c-0.991 0-1.794-0.802-1.794-1.789 0-0.988 0.803-1.789 1.794-1.789 0.989 0 1.792 0.8 1.792 1.789 0 0.987-0.803 1.789-1.792 1.789z"></path>
</symbol>
<symbol id="icon-cup" viewBox="0 0 60 32">
<path d="M42.334 24.019c2.792 0.096 5.379 0.222 7.64 0.383 7.857 0.554 10.141 1.081 10.141 3.507 0 2.424-2.284 2.953-10.141 3.507-5.328 0.376-12.401 0.584-19.916 0.584s-14.589-0.207-19.916-0.584c-7.857-0.554-10.142-1.083-10.142-3.507 0-2.426 2.284-2.953 10.142-3.507 2.257-0.16 4.84-0.285 7.627-0.38-5.575-4.835-9.235-12.843-9.235-21.905 0-1.169 0.94-2.116 2.099-2.116h38.85c1.16 0 2.099 0.947 2.099 2.116 0 1.121-0.074 2.218-0.182 3.302 2.491-0.625 5.202 0.385 6.606 2.71 0.838 1.386 1.091 3.018 0.71 4.598s-1.347 2.913-2.723 3.759c-0.957 0.588-2.033 0.89-3.126 0.89-0.478 0-0.959-0.057-1.435-0.175-1.087-0.265-2.047-0.833-2.819-1.612-1.581 3.342-3.732 6.215-6.28 8.431zM47.308 4.233h-34.5c0.825 11.41 8.246 20.368 17.25 20.368s16.425-8.959 17.25-20.368zM50.979 8.284c0.016-0.010 0.034-0.009 0.049-0.019 1.653-1.015 3.818-0.485 4.826 1.184 0.489 0.807 0.635 1.758 0.413 2.678s-0.783 1.696-1.586 2.187c-0.801 0.495-1.745 0.641-2.655 0.419-0.912-0.223-1.683-0.791-2.171-1.6-0.039-0.066-0.1-0.108-0.149-0.162 0.538-1.497 0.961-3.064 1.273-4.687z"></path>
</symbol>
<symbol id="icon-tg" viewBox="0 0 34 32">
<path d="M33.987 0.073c-0.107-0.082-0.252-0.097-0.37-0.035l-33.429 16.925c-0.126 0.063-0.198 0.194-0.187 0.332 0.012 0.137 0.106 0.255 0.239 0.298l10.58 3.331c0.116 0.037 0.245 0.010 0.334-0.072l16.092-13.62-12.36 14.485c-0.074 0.087-0.1 0.206-0.068 0.317 0.034 0.11 0.12 0.196 0.23 0.229l12.417 3.746c0.033 0.009 0.066 0.015 0.1 0.015 0.059 0 0.119-0.016 0.171-0.045 0.082-0.048 0.142-0.125 0.165-0.216l6.207-25.341c0.031-0.13-0.016-0.266-0.12-0.349zM15.25 24.92l3.431 1.046c0.102 0.032 0.184 0.108 0.222 0.208 0.038 0.099 0.026 0.21-0.032 0.3l-3.431 5.368c-0.066 0.101-0.176 0.159-0.291 0.159-0.033 0-0.065-0.005-0.096-0.013-0.148-0.043-0.249-0.176-0.249-0.328v-6.413c0-0.109 0.051-0.211 0.14-0.275s0.202-0.085 0.306-0.051z"></path>
</symbol>
<symbol id="icon-chemie" viewBox="0 0 23 32">
<path d="M17.077 11.397l6.148 16.584c0.361 0.876 0.255 1.904-0.297 2.719s-1.473 1.3-2.463 1.3h-17.497c-0.99 0-1.91-0.485-2.463-1.299-0.552-0.817-0.659-1.845-0.285-2.753l6.137-16.552v-4.881c-1.163-0.402-1.995-1.495-1.995-2.778v-0.796c0-1.623 1.331-2.942 2.968-2.942h8.776c1.636 0 2.968 1.319 2.968 2.942v0.796c0 1.283-0.835 2.379-1.995 2.779v4.88zM8.32 5.706v6.036l-2.29 6.176h0.090c0 0 9.367-0.153 10.649-1.473 0.023-0.024 0.044-0.038 0.067-0.060l-1.722-4.644v-7.009h0.981c0.563 0 1.013-0.447 1.013-0.995v-0.796c0-0.55-0.451-0.996-1.005-0.996h-8.776c-0.554 0-1.005 0.446-1.005 0.996v0.796c0 0.549 0.451 0.995 1.005 0.995h0.982l0.009 0.973zM11.987 21.298c0-0.686 0.565-1.248 1.261-1.248 0.693 0 1.257 0.562 1.257 1.248 0 0.688-0.564 1.248-1.257 1.248-0.697 0-1.261-0.56-1.261-1.248zM6.956 24.221c0-0.556 0.452-1.002 1.009-1.002 0.561 0 1.014 0.446 1.014 1.002s-0.453 1.002-1.014 1.002c-0.557 0-1.009-0.447-1.009-1.002zM15.223 26.825c0-0.953-0.782-1.73-1.748-1.73s-1.747 0.778-1.747 1.73c0 0.957 0.78 1.735 1.747 1.735s1.748-0.778 1.748-1.735z"></path>
</symbol>
</defs>
</svg>
